<svg width="36" height="36" viewBox="0 0 36 36" fill="none" xmlns="http://www.w3.org/2000/svg">
<path d="M29.1786 11H23.3054C22.045 11 20.8128 11.3658 19.7527 12.056L18.5 12.8681L17.2473 12.056C16.1882 11.366 14.9547 10.9993 13.6946 11H7.82143C7.36708 11 7 11.371 7 11.8303V26.5679C7 27.0271 7.36708 27.3982 7.82143 27.3982H13.6946C14.955 27.3982 16.1872 27.764 17.2473 28.4542L18.3871 29.1963C18.4204 29.217 18.4589 29.23 18.4974 29.23C18.5359 29.23 18.5744 29.2196 18.6078 29.1963L19.7475 28.4542C20.8103 27.764 22.045 27.3982 23.3054 27.3982H29.1786C29.6329 27.3982 30 27.0271 30 26.5679V11.8303C30 11.371 29.6329 11 29.1786 11ZM13.6946 25.53H8.84821V12.8681H13.6946C14.6033 12.8681 15.4864 13.1302 16.2488 13.6258L17.5015 14.4379L17.6786 14.5547V26.5419C16.4567 25.8777 15.0911 25.53 13.6946 25.53ZM28.1518 25.53H23.3054C21.9089 25.53 20.5433 25.8777 19.3214 26.5419V14.5547L19.4986 14.4379L20.7512 13.6258C21.5136 13.1302 22.3967 12.8681 23.3054 12.8681H28.1518V25.53ZM15.5454 16.1893H10.776C10.6759 16.1893 10.5938 16.2775 10.5938 16.3839V17.5515C10.5938 17.6579 10.6759 17.7461 10.776 17.7461H15.5429C15.643 17.7461 15.7251 17.6579 15.7251 17.5515V16.3839C15.7277 16.2775 15.6455 16.1893 15.5454 16.1893ZM21.2723 16.3839V17.5515C21.2723 17.6579 21.3545 17.7461 21.4546 17.7461H26.2214C26.3215 17.7461 26.4037 17.6579 26.4037 17.5515V16.3839C26.4037 16.2775 26.3215 16.1893 26.2214 16.1893H21.4546C21.3545 16.1893 21.2723 16.2775 21.2723 16.3839ZM15.5454 19.8218H10.776C10.6759 19.8218 10.5938 19.91 10.5938 20.0164V21.184C10.5938 21.2904 10.6759 21.3786 10.776 21.3786H15.5429C15.643 21.3786 15.7251 21.2904 15.7251 21.184V20.0164C15.7277 19.91 15.6455 19.8218 15.5454 19.8218ZM26.224 19.8218H21.4546C21.3545 19.8218 21.2723 19.91 21.2723 20.0164V21.184C21.2723 21.2904 21.3545 21.3786 21.4546 21.3786H26.2214C26.3215 21.3786 26.4037 21.2904 26.4037 21.184V20.0164C26.4063 19.91 26.3241 19.8218 26.224 19.8218Z" fill="#736961"/>
<path d="M29.1786 11H23.3054C22.045 11 20.8128 11.3658 19.7527 12.056L18.5 12.8681L17.2473 12.056C16.1882 11.366 14.9547 10.9993 13.6946 11H7.82143C7.36708 11 7 11.371 7 11.8303V26.5679C7 27.0271 7.36708 27.3982 7.82143 27.3982H13.6946C14.955 27.3982 16.1872 27.764 17.2473 28.4542L18.3871 29.1963C18.4204 29.217 18.4589 29.23 18.4974 29.23C18.5359 29.23 18.5744 29.2196 18.6078 29.1963L19.7475 28.4542C20.8103 27.764 22.045 27.3982 23.3054 27.3982H29.1786C29.6329 27.3982 30 27.0271 30 26.5679V11.8303C30 11.371 29.6329 11 29.1786 11ZM13.6946 25.53H8.84821V12.8681H13.6946C14.6033 12.8681 15.4864 13.1302 16.2488 13.6258L17.5015 14.4379L17.6786 14.5547V26.5419C16.4567 25.8777 15.0911 25.53 13.6946 25.53ZM28.1518 25.53H23.3054C21.9089 25.53 20.5433 25.8777 19.3214 26.5419V14.5547L19.4986 14.4379L20.7512 13.6258C21.5136 13.1302 22.3967 12.8681 23.3054 12.8681H28.1518V25.53ZM15.5454 16.1893H10.776C10.6759 16.1893 10.5938 16.2775 10.5938 16.3839V17.5515C10.5938 17.6579 10.6759 17.7461 10.776 17.7461H15.5429C15.643 17.7461 15.7251 17.6579 15.7251 17.5515V16.3839C15.7277 16.2775 15.6455 16.1893 15.5454 16.1893ZM21.2723 16.3839V17.5515C21.2723 17.6579 21.3545 17.7461 21.4546 17.7461H26.2214C26.3215 17.7461 26.4037 17.6579 26.4037 17.5515V16.3839C26.4037 16.2775 26.3215 16.1893 26.2214 16.1893H21.4546C21.3545 16.1893 21.2723 16.2775 21.2723 16.3839ZM15.5454 19.8218H10.776C10.6759 19.8218 10.5938 19.91 10.5938 20.0164V21.184C10.5938 21.2904 10.6759 21.3786 10.776 21.3786H15.5429C15.643 21.3786 15.7251 21.2904 15.7251 21.184V20.0164C15.7277 19.91 15.6455 19.8218 15.5454 19.8218ZM26.224 19.8218H21.4546C21.3545 19.8218 21.2723 19.91 21.2723 20.0164V21.184C21.2723 21.2904 21.3545 21.3786 21.4546 21.3786H26.2214C26.3215 21.3786 26.4037 21.2904 26.4037 21.184V20.0164C26.4063 19.91 26.3241 19.8218 26.224 19.8218Z" fill="url(#paint0_linear)" fill-opacity="0.34"/>
<defs>
<linearGradient id="paint0_linear" x1="18.5" y1="11" x2="18.5" y2="29.23" gradientUnits="userSpaceOnUse">
<stop offset="0.265625" stop-color="#51443E"/>
<stop offset="1" stop-opacity="0"/>
</linearGradient>
</defs>
</svg>
