<svg width="36" height="36" viewBox="0 0 36 36" fill="none" xmlns="http://www.w3.org/2000/svg">
<g clip-path="url(#clip0)">
<path d="M29.6248 17.8424L18.8435 9.22191L18.1209 8.64378C17.9562 8.51293 17.7336 8.43948 17.5015 8.43948C17.2694 8.43948 17.0467 8.51293 16.882 8.64378L5.37814 17.8424C5.20942 17.9769 5.07608 18.137 4.98599 18.3134C4.89589 18.4897 4.85087 18.6787 4.85359 18.8692C4.86475 19.6549 5.68227 20.2822 6.66441 20.2822H7.85024V27.5523H27.1527V20.2822H28.3636C28.8407 20.2822 29.29 20.1326 29.6276 19.8625C29.7938 19.73 29.9255 19.5723 30.0151 19.3988C30.1047 19.2252 30.1503 19.0391 30.1493 18.8514C30.1493 18.4719 29.9624 18.1125 29.6248 17.8424ZM19.064 25.9451H15.939V21.3915H19.064V25.9451ZM25.1438 18.675V25.9451H20.8497V20.8558C20.8497 20.3625 20.3502 19.963 19.7336 19.963H15.2693C14.6527 19.963 14.1532 20.3625 14.1532 20.8558V25.9451H9.85917V18.675H7.18059L17.5043 10.4228L18.1488 10.9384L27.8251 18.675H25.1438Z" fill="#BB7E65"/>
<path d="M29.6248 17.8424L18.8435 9.22191L18.1209 8.64378C17.9562 8.51293 17.7336 8.43948 17.5015 8.43948C17.2694 8.43948 17.0467 8.51293 16.882 8.64378L5.37814 17.8424C5.20942 17.9769 5.07608 18.137 4.98599 18.3134C4.89589 18.4897 4.85087 18.6787 4.85359 18.8692C4.86475 19.6549 5.68227 20.2822 6.66441 20.2822H7.85024V27.5523H27.1527V20.2822H28.3636C28.8407 20.2822 29.29 20.1326 29.6276 19.8625C29.7938 19.73 29.9255 19.5723 30.0151 19.3988C30.1047 19.2252 30.1503 19.0391 30.1493 18.8514C30.1493 18.4719 29.9624 18.1125 29.6248 17.8424ZM19.064 25.9451H15.939V21.3915H19.064V25.9451ZM25.1438 18.675V25.9451H20.8497V20.8558C20.8497 20.3625 20.3502 19.963 19.7336 19.963H15.2693C14.6527 19.963 14.1532 20.3625 14.1532 20.8558V25.9451H9.85917V18.675H7.18059L17.5043 10.4228L18.1488 10.9384L27.8251 18.675H25.1438Z" fill="url(#paint0_linear)" fill-opacity="0.6"/>
</g>
<defs>
<linearGradient id="paint0_linear" x1="17.5014" y1="8.43948" x2="17.5014" y2="27.5523" gradientUnits="userSpaceOnUse">
<stop stop-color="#2A292D"/>
<stop offset="1" stop-color="#E5E5E5" stop-opacity="0"/>
</linearGradient>
<clipPath id="clip0">
<rect width="25" height="20" fill="white" transform="translate(5 8)"/>
</clipPath>
</defs>
</svg>
