<svg width="36" height="36" viewBox="0 0 36 36" fill="none" xmlns="http://www.w3.org/2000/svg">
<path d="M26.3744 11H8.7656C8.34213 11 8 11.3243 8 11.7256V28.4144C8 28.8157 8.34213 29.14 8.7656 29.14H26.3744C26.7979 29.14 27.14 28.8157 27.14 28.4144V11.7256C27.14 11.3243 26.7979 11 26.3744 11ZM25.4174 27.5074H9.7226V12.6326H25.4174V27.5074ZM13.4549 23.9474V25.6934C13.4549 25.7932 13.541 25.8748 13.6463 25.8748H14.7947C14.9 25.8748 14.9861 25.7932 14.9861 25.6934V23.9474C14.7445 24.0223 14.4885 24.0608 14.2205 24.0608C13.9525 24.0608 13.6965 24.02 13.4549 23.9474ZM14.9861 19.4578V14.4466C14.9861 14.3468 14.9 14.2652 14.7947 14.2652H13.6463C13.541 14.2652 13.4549 14.3468 13.4549 14.4466V19.4578C13.6965 19.3829 13.9525 19.3444 14.2205 19.3444C14.4885 19.3444 14.7445 19.3852 14.9861 19.4578ZM13.4549 23.9474C13.6965 24.0223 13.9525 24.0608 14.2205 24.0608C14.4885 24.0608 14.7445 24.02 14.9861 23.9474C15.9862 23.6413 16.7087 22.7525 16.7087 21.7026C16.7087 20.6527 15.9862 19.7639 14.9861 19.4578C14.7445 19.3829 14.4885 19.3444 14.2205 19.3444C13.9525 19.3444 13.6965 19.3852 13.4549 19.4578C12.4548 19.7639 11.7323 20.6527 11.7323 21.7026C11.7323 22.7525 12.4548 23.6413 13.4549 23.9474ZM13.4573 21.3239C13.4645 21.3103 13.474 21.2967 13.4812 21.2831V21.2808L13.5099 21.24C13.5123 21.2355 13.5147 21.2332 13.5171 21.2287C13.5243 21.2174 13.5339 21.2083 13.541 21.1969C13.5434 21.1947 13.5458 21.1901 13.5482 21.1879C13.5602 21.1743 13.5697 21.1629 13.5817 21.1516L13.5889 21.1448L13.6176 21.1176L13.6272 21.1085C13.6391 21.0972 13.6511 21.0881 13.6654 21.0768C13.6798 21.0654 13.6918 21.0564 13.7061 21.0473C13.7109 21.045 13.7133 21.0428 13.7181 21.0405C13.73 21.0337 13.7396 21.0246 13.7516 21.0178C13.754 21.0155 13.7587 21.0133 13.7611 21.011C13.7755 21.0019 13.7899 20.9951 13.8066 20.9861C13.809 20.9838 13.8138 20.9838 13.8162 20.9815C13.8281 20.9747 13.8401 20.9702 13.8544 20.9634L13.8688 20.9566C13.8855 20.9498 13.8999 20.943 13.9167 20.9385C13.9334 20.9317 13.9501 20.9271 13.9669 20.9226C13.9717 20.9203 13.9765 20.9203 13.9812 20.918C13.9956 20.9135 14.0076 20.9112 14.0219 20.909C14.0267 20.909 14.0291 20.9067 14.0339 20.9067C14.0506 20.9022 14.0698 20.8999 14.0865 20.8976C14.0913 20.8976 14.0937 20.8976 14.0985 20.8954C14.1128 20.8931 14.1272 20.8931 14.1415 20.8908H14.1559C14.175 20.8908 14.1918 20.8886 14.2109 20.8886C14.2301 20.8886 14.2468 20.8886 14.266 20.8908H14.2803C14.2947 20.8908 14.309 20.8931 14.3234 20.8954C14.3282 20.8954 14.3306 20.8954 14.3353 20.8976C14.3521 20.8999 14.3712 20.9022 14.388 20.9067C14.3928 20.9067 14.3952 20.909 14.3999 20.909C14.4143 20.9112 14.4286 20.9158 14.4406 20.918C14.4454 20.9203 14.4502 20.9203 14.455 20.9226C14.4717 20.9271 14.4885 20.9317 14.5052 20.9385C14.522 20.943 14.5363 20.9498 14.5531 20.9566L14.5674 20.9634C14.5794 20.9679 14.5937 20.9747 14.6057 20.9815C14.6081 20.9838 14.6129 20.9838 14.6153 20.9861C14.6296 20.9929 14.6464 21.0019 14.6607 21.011C14.6631 21.0133 14.6679 21.0155 14.6703 21.0178C14.6823 21.0246 14.6942 21.0314 14.7038 21.0405C14.7086 21.0428 14.711 21.045 14.7157 21.0473C14.7301 21.0564 14.7445 21.0677 14.7564 21.0768C14.7684 21.0858 14.7827 21.0972 14.7947 21.1085L14.8043 21.1176L14.833 21.1448L14.8402 21.1516C14.8521 21.1629 14.8641 21.1765 14.8737 21.1879C14.876 21.1901 14.8784 21.1947 14.8808 21.1969C14.8904 21.206 14.8976 21.2174 14.9048 21.2287C14.9071 21.2332 14.9095 21.2355 14.9119 21.24L14.9406 21.2808C14.9406 21.2808 14.9406 21.2831 14.943 21.2831C15.0228 21.41 15.065 21.5549 15.0651 21.7026C15.0651 21.8386 15.0292 21.9679 14.967 22.0813C14.9598 22.0949 14.9502 22.1085 14.943 22.1221C14.943 22.1221 14.943 22.1244 14.9406 22.1244L14.9119 22.1652C14.9095 22.1697 14.9071 22.172 14.9048 22.1765C14.8976 22.1878 14.888 22.1969 14.8808 22.2083C14.8784 22.2105 14.876 22.2151 14.8737 22.2173C14.8617 22.2309 14.8521 22.2423 14.8402 22.2536L14.833 22.2604L14.8043 22.2876L14.7947 22.2967C14.7827 22.308 14.7708 22.3171 14.7564 22.3284C14.7421 22.3398 14.7301 22.3488 14.7157 22.3579C14.711 22.3602 14.7086 22.3624 14.7038 22.3647C14.6918 22.3715 14.6823 22.3806 14.6703 22.3874C14.6679 22.3897 14.6631 22.3919 14.6607 22.3942C14.6464 22.4033 14.632 22.4101 14.6153 22.4191C14.6129 22.4214 14.6081 22.4214 14.6057 22.4237C14.5937 22.4305 14.5818 22.435 14.5674 22.4418L14.5531 22.4486C14.5363 22.4554 14.522 22.4622 14.5052 22.4667C14.4885 22.4736 14.4717 22.4781 14.455 22.4826C14.4502 22.4849 14.4454 22.4849 14.4406 22.4872C14.4263 22.4917 14.4143 22.494 14.3999 22.4962C14.3952 22.4962 14.3928 22.4985 14.388 22.4985C14.3712 22.503 14.3521 22.5053 14.3353 22.5076C14.3306 22.5076 14.3282 22.5076 14.3234 22.5098C14.309 22.5121 14.2947 22.5121 14.2803 22.5144H14.266C14.2468 22.5144 14.2301 22.5166 14.2109 22.5166C14.1918 22.5166 14.175 22.5166 14.1559 22.5144H14.1415C14.1272 22.5144 14.1128 22.5121 14.0985 22.5098C14.0937 22.5098 14.0913 22.5098 14.0865 22.5076C14.0698 22.5053 14.0506 22.503 14.0339 22.4985C14.0291 22.4985 14.0267 22.4962 14.0219 22.4962C14.0076 22.494 13.9932 22.4894 13.9812 22.4872C13.9765 22.4849 13.9717 22.4849 13.9669 22.4826C13.9501 22.4781 13.9334 22.4736 13.9167 22.4667C13.8999 22.4622 13.8855 22.4554 13.8688 22.4486L13.8544 22.4418C13.8425 22.4373 13.8281 22.4305 13.8162 22.4237C13.8138 22.4214 13.809 22.4214 13.8066 22.4191C13.7922 22.4123 13.7755 22.4033 13.7611 22.3942C13.7587 22.3919 13.754 22.3897 13.7516 22.3874C13.7396 22.3806 13.7276 22.3738 13.7181 22.3647C13.7133 22.3624 13.7109 22.3602 13.7061 22.3579C13.6918 22.3488 13.6774 22.3375 13.6654 22.3284C13.6535 22.3194 13.6391 22.308 13.6272 22.2967L13.6176 22.2876L13.5889 22.2604L13.5817 22.2536C13.5697 22.2423 13.5578 22.2287 13.5482 22.2173C13.5458 22.2151 13.5434 22.2105 13.541 22.2083C13.5315 22.1992 13.5243 22.1878 13.5171 22.1765C13.5147 22.172 13.5123 22.1697 13.5099 22.1652L13.4812 22.1244V22.1221C13.4716 22.1085 13.4645 22.0949 13.4573 22.0813C13.3951 21.9679 13.3592 21.8386 13.3592 21.7026C13.3592 21.5666 13.3951 21.4373 13.4573 21.3239ZM20.1539 20.6822V25.6934C20.1539 25.7932 20.24 25.8748 20.3453 25.8748H21.4937C21.599 25.8748 21.6851 25.7932 21.6851 25.6934V20.6822C21.4435 20.7571 21.1875 20.7956 20.9195 20.7956C20.6515 20.7956 20.3955 20.7548 20.1539 20.6822ZM21.6851 16.1926V14.4466C21.6851 14.3468 21.599 14.2652 21.4937 14.2652H20.3453C20.24 14.2652 20.1539 14.3468 20.1539 14.4466V16.1926C20.3955 16.1177 20.6515 16.0792 20.9195 16.0792C21.1875 16.0792 21.4435 16.12 21.6851 16.1926ZM20.1539 20.6822C20.3955 20.7571 20.6515 20.7956 20.9195 20.7956C21.1875 20.7956 21.4435 20.7548 21.6851 20.6822C22.6852 20.3761 23.4077 19.4873 23.4077 18.4374C23.4077 17.3875 22.6852 16.4987 21.6851 16.1926C21.4435 16.1177 21.1875 16.0792 20.9195 16.0792C20.6515 16.0792 20.3955 16.12 20.1539 16.1926C19.1538 16.4987 18.4313 17.3875 18.4313 18.4374C18.4313 19.4873 19.1538 20.3761 20.1539 20.6822ZM20.1563 18.0587C20.1635 18.0451 20.173 18.0315 20.1802 18.0179V18.0156L20.2089 17.9748C20.2113 17.9703 20.2137 17.968 20.2161 17.9635C20.2233 17.9522 20.2329 17.9431 20.24 17.9317C20.2424 17.9295 20.2448 17.9249 20.2472 17.9227C20.2592 17.9091 20.2687 17.8977 20.2807 17.8864L20.2879 17.8796L20.3166 17.8524L20.3262 17.8433C20.3381 17.832 20.3501 17.8229 20.3644 17.8116C20.3788 17.8002 20.3908 17.7912 20.4051 17.7821C20.4099 17.7798 20.4123 17.7776 20.4171 17.7753C20.429 17.7685 20.4386 17.7594 20.4506 17.7526C20.453 17.7503 20.4577 17.7481 20.4601 17.7458C20.4745 17.7367 20.4888 17.7299 20.5056 17.7209C20.508 17.7186 20.5128 17.7186 20.5152 17.7163C20.5271 17.7095 20.5391 17.705 20.5534 17.6982L20.5678 17.6914C20.5845 17.6846 20.5989 17.6778 20.6157 17.6733C20.6324 17.6664 20.6491 17.6619 20.6659 17.6574C20.6707 17.6551 20.6755 17.6551 20.6802 17.6528C20.6946 17.6483 20.7066 17.646 20.7209 17.6438C20.7257 17.6438 20.7281 17.6415 20.7329 17.6415C20.7496 17.637 20.7688 17.6347 20.7855 17.6324C20.7903 17.6324 20.7927 17.6324 20.7975 17.6302C20.8118 17.6279 20.8262 17.6279 20.8405 17.6256H20.8549C20.874 17.6256 20.8908 17.6234 20.9099 17.6234C20.9291 17.6234 20.9458 17.6234 20.965 17.6256H20.9793C20.9937 17.6256 21.008 17.6279 21.0224 17.6302C21.0272 17.6302 21.0296 17.6302 21.0343 17.6324C21.0511 17.6347 21.0702 17.637 21.087 17.6415C21.0918 17.6415 21.0942 17.6438 21.0989 17.6438C21.1133 17.646 21.1276 17.6506 21.1396 17.6528C21.1444 17.6551 21.1492 17.6551 21.154 17.6574C21.1707 17.6619 21.1875 17.6664 21.2042 17.6733C21.221 17.6778 21.2353 17.6846 21.2521 17.6914L21.2664 17.6982C21.2784 17.7027 21.2927 17.7095 21.3047 17.7163C21.3071 17.7186 21.3119 17.7186 21.3143 17.7209C21.3286 17.7277 21.3454 17.7367 21.3597 17.7458C21.3621 17.7481 21.3669 17.7503 21.3693 17.7526C21.3813 17.7594 21.3932 17.7662 21.4028 17.7753C21.4076 17.7776 21.41 17.7798 21.4147 17.7821C21.4291 17.7912 21.4435 17.8025 21.4554 17.8116C21.4674 17.8206 21.4817 17.832 21.4937 17.8433L21.5033 17.8524L21.532 17.8796L21.5392 17.8864C21.5511 17.8977 21.5631 17.9113 21.5727 17.9227C21.575 17.9249 21.5774 17.9295 21.5798 17.9317C21.5894 17.9408 21.5966 17.9522 21.6038 17.9635C21.6061 17.968 21.6085 17.9703 21.6109 17.9748L21.6396 18.0156V18.0179C21.7194 18.1448 21.7616 18.2897 21.7617 18.4374C21.7617 18.5735 21.7258 18.7027 21.6636 18.8161C21.6564 18.8297 21.6468 18.8433 21.6396 18.8569V18.8592L21.6109 18.9C21.6085 18.9045 21.6061 18.9068 21.6038 18.9113C21.5966 18.9226 21.587 18.9317 21.5798 18.9431C21.5774 18.9453 21.575 18.9499 21.5727 18.9521C21.5607 18.9657 21.5511 18.9771 21.5392 18.9884L21.532 18.9952L21.5033 19.0224L21.4937 19.0315C21.4817 19.0428 21.4698 19.0519 21.4554 19.0632C21.4411 19.0746 21.4291 19.0836 21.4147 19.0927C21.41 19.095 21.4076 19.0972 21.4028 19.0995C21.3908 19.1063 21.3813 19.1154 21.3693 19.1222C21.3669 19.1245 21.3621 19.1267 21.3597 19.129C21.3454 19.1381 21.331 19.1449 21.3143 19.1539C21.3119 19.1562 21.3071 19.1562 21.3047 19.1585C21.2927 19.1653 21.2808 19.1698 21.2664 19.1766L21.2521 19.1834C21.2353 19.1902 21.221 19.197 21.2042 19.2015C21.1875 19.2084 21.1707 19.2129 21.154 19.2174C21.1492 19.2197 21.1444 19.2197 21.1396 19.222C21.1253 19.2265 21.1133 19.2288 21.0989 19.231C21.0942 19.231 21.0918 19.2333 21.087 19.2333C21.0702 19.2378 21.0511 19.2401 21.0343 19.2424C21.0296 19.2424 21.0272 19.2424 21.0224 19.2446C21.008 19.2469 20.9937 19.2469 20.9793 19.2492H20.965C20.9458 19.2492 20.9291 19.2514 20.9099 19.2514C20.8908 19.2514 20.874 19.2514 20.8549 19.2492H20.8405C20.8262 19.2492 20.8118 19.2469 20.7975 19.2446C20.7927 19.2446 20.7903 19.2446 20.7855 19.2424C20.7688 19.2401 20.7496 19.2378 20.7329 19.2333C20.7281 19.2333 20.7257 19.231 20.7209 19.231C20.7066 19.2288 20.6922 19.2242 20.6802 19.222C20.6755 19.2197 20.6707 19.2197 20.6659 19.2174C20.6491 19.2129 20.6324 19.2084 20.6157 19.2015C20.5989 19.197 20.5845 19.1902 20.5678 19.1834L20.5534 19.1766C20.5415 19.1721 20.5271 19.1653 20.5152 19.1585C20.5128 19.1562 20.508 19.1562 20.5056 19.1539C20.4912 19.1471 20.4745 19.1381 20.4601 19.129C20.4577 19.1267 20.453 19.1245 20.4506 19.1222C20.4386 19.1154 20.4266 19.1086 20.4171 19.0995C20.4123 19.0972 20.4099 19.095 20.4051 19.0927C20.3908 19.0836 20.3764 19.0723 20.3644 19.0632C20.3525 19.0542 20.3381 19.0428 20.3262 19.0315L20.3166 19.0224L20.2879 18.9952L20.2807 18.9884C20.2687 18.9771 20.2568 18.9635 20.2472 18.9521C20.2448 18.9499 20.2424 18.9453 20.24 18.9431C20.2305 18.934 20.2233 18.9226 20.2161 18.9113C20.2137 18.9068 20.2113 18.9045 20.2089 18.9L20.1802 18.8592V18.8569C20.1706 18.8433 20.1635 18.8297 20.1563 18.8161C20.0941 18.7027 20.0582 18.5735 20.0582 18.4374C20.0582 18.3014 20.0941 18.1721 20.1563 18.0587Z" fill="#776A63"/>
<path d="M26.3744 11H8.7656C8.34213 11 8 11.3243 8 11.7256V28.4144C8 28.8157 8.34213 29.14 8.7656 29.14H26.3744C26.7979 29.14 27.14 28.8157 27.14 28.4144V11.7256C27.14 11.3243 26.7979 11 26.3744 11ZM25.4174 27.5074H9.7226V12.6326H25.4174V27.5074ZM13.4549 23.9474V25.6934C13.4549 25.7932 13.541 25.8748 13.6463 25.8748H14.7947C14.9 25.8748 14.9861 25.7932 14.9861 25.6934V23.9474C14.7445 24.0223 14.4885 24.0608 14.2205 24.0608C13.9525 24.0608 13.6965 24.02 13.4549 23.9474ZM14.9861 19.4578V14.4466C14.9861 14.3468 14.9 14.2652 14.7947 14.2652H13.6463C13.541 14.2652 13.4549 14.3468 13.4549 14.4466V19.4578C13.6965 19.3829 13.9525 19.3444 14.2205 19.3444C14.4885 19.3444 14.7445 19.3852 14.9861 19.4578ZM13.4549 23.9474C13.6965 24.0223 13.9525 24.0608 14.2205 24.0608C14.4885 24.0608 14.7445 24.02 14.9861 23.9474C15.9862 23.6413 16.7087 22.7525 16.7087 21.7026C16.7087 20.6527 15.9862 19.7639 14.9861 19.4578C14.7445 19.3829 14.4885 19.3444 14.2205 19.3444C13.9525 19.3444 13.6965 19.3852 13.4549 19.4578C12.4548 19.7639 11.7323 20.6527 11.7323 21.7026C11.7323 22.7525 12.4548 23.6413 13.4549 23.9474ZM13.4573 21.3239C13.4645 21.3103 13.474 21.2967 13.4812 21.2831V21.2808L13.5099 21.24C13.5123 21.2355 13.5147 21.2332 13.5171 21.2287C13.5243 21.2174 13.5339 21.2083 13.541 21.1969C13.5434 21.1947 13.5458 21.1901 13.5482 21.1879C13.5602 21.1743 13.5697 21.1629 13.5817 21.1516L13.5889 21.1448L13.6176 21.1176L13.6272 21.1085C13.6391 21.0972 13.6511 21.0881 13.6654 21.0768C13.6798 21.0654 13.6918 21.0564 13.7061 21.0473C13.7109 21.045 13.7133 21.0428 13.7181 21.0405C13.73 21.0337 13.7396 21.0246 13.7516 21.0178C13.754 21.0155 13.7587 21.0133 13.7611 21.011C13.7755 21.0019 13.7899 20.9951 13.8066 20.9861C13.809 20.9838 13.8138 20.9838 13.8162 20.9815C13.8281 20.9747 13.8401 20.9702 13.8544 20.9634L13.8688 20.9566C13.8855 20.9498 13.8999 20.943 13.9167 20.9385C13.9334 20.9317 13.9501 20.9271 13.9669 20.9226C13.9717 20.9203 13.9765 20.9203 13.9812 20.918C13.9956 20.9135 14.0076 20.9112 14.0219 20.909C14.0267 20.909 14.0291 20.9067 14.0339 20.9067C14.0506 20.9022 14.0698 20.8999 14.0865 20.8976C14.0913 20.8976 14.0937 20.8976 14.0985 20.8954C14.1128 20.8931 14.1272 20.8931 14.1415 20.8908H14.1559C14.175 20.8908 14.1918 20.8886 14.2109 20.8886C14.2301 20.8886 14.2468 20.8886 14.266 20.8908H14.2803C14.2947 20.8908 14.309 20.8931 14.3234 20.8954C14.3282 20.8954 14.3306 20.8954 14.3353 20.8976C14.3521 20.8999 14.3712 20.9022 14.388 20.9067C14.3928 20.9067 14.3952 20.909 14.3999 20.909C14.4143 20.9112 14.4286 20.9158 14.4406 20.918C14.4454 20.9203 14.4502 20.9203 14.455 20.9226C14.4717 20.9271 14.4885 20.9317 14.5052 20.9385C14.522 20.943 14.5363 20.9498 14.5531 20.9566L14.5674 20.9634C14.5794 20.9679 14.5937 20.9747 14.6057 20.9815C14.6081 20.9838 14.6129 20.9838 14.6153 20.9861C14.6296 20.9929 14.6464 21.0019 14.6607 21.011C14.6631 21.0133 14.6679 21.0155 14.6703 21.0178C14.6823 21.0246 14.6942 21.0314 14.7038 21.0405C14.7086 21.0428 14.711 21.045 14.7157 21.0473C14.7301 21.0564 14.7445 21.0677 14.7564 21.0768C14.7684 21.0858 14.7827 21.0972 14.7947 21.1085L14.8043 21.1176L14.833 21.1448L14.8402 21.1516C14.8521 21.1629 14.8641 21.1765 14.8737 21.1879C14.876 21.1901 14.8784 21.1947 14.8808 21.1969C14.8904 21.206 14.8976 21.2174 14.9048 21.2287C14.9071 21.2332 14.9095 21.2355 14.9119 21.24L14.9406 21.2808C14.9406 21.2808 14.9406 21.2831 14.943 21.2831C15.0228 21.41 15.065 21.5549 15.0651 21.7026C15.0651 21.8386 15.0292 21.9679 14.967 22.0813C14.9598 22.0949 14.9502 22.1085 14.943 22.1221C14.943 22.1221 14.943 22.1244 14.9406 22.1244L14.9119 22.1652C14.9095 22.1697 14.9071 22.172 14.9048 22.1765C14.8976 22.1878 14.888 22.1969 14.8808 22.2083C14.8784 22.2105 14.876 22.2151 14.8737 22.2173C14.8617 22.2309 14.8521 22.2423 14.8402 22.2536L14.833 22.2604L14.8043 22.2876L14.7947 22.2967C14.7827 22.308 14.7708 22.3171 14.7564 22.3284C14.7421 22.3398 14.7301 22.3488 14.7157 22.3579C14.711 22.3602 14.7086 22.3624 14.7038 22.3647C14.6918 22.3715 14.6823 22.3806 14.6703 22.3874C14.6679 22.3897 14.6631 22.3919 14.6607 22.3942C14.6464 22.4033 14.632 22.4101 14.6153 22.4191C14.6129 22.4214 14.6081 22.4214 14.6057 22.4237C14.5937 22.4305 14.5818 22.435 14.5674 22.4418L14.5531 22.4486C14.5363 22.4554 14.522 22.4622 14.5052 22.4667C14.4885 22.4736 14.4717 22.4781 14.455 22.4826C14.4502 22.4849 14.4454 22.4849 14.4406 22.4872C14.4263 22.4917 14.4143 22.494 14.3999 22.4962C14.3952 22.4962 14.3928 22.4985 14.388 22.4985C14.3712 22.503 14.3521 22.5053 14.3353 22.5076C14.3306 22.5076 14.3282 22.5076 14.3234 22.5098C14.309 22.5121 14.2947 22.5121 14.2803 22.5144H14.266C14.2468 22.5144 14.2301 22.5166 14.2109 22.5166C14.1918 22.5166 14.175 22.5166 14.1559 22.5144H14.1415C14.1272 22.5144 14.1128 22.5121 14.0985 22.5098C14.0937 22.5098 14.0913 22.5098 14.0865 22.5076C14.0698 22.5053 14.0506 22.503 14.0339 22.4985C14.0291 22.4985 14.0267 22.4962 14.0219 22.4962C14.0076 22.494 13.9932 22.4894 13.9812 22.4872C13.9765 22.4849 13.9717 22.4849 13.9669 22.4826C13.9501 22.4781 13.9334 22.4736 13.9167 22.4667C13.8999 22.4622 13.8855 22.4554 13.8688 22.4486L13.8544 22.4418C13.8425 22.4373 13.8281 22.4305 13.8162 22.4237C13.8138 22.4214 13.809 22.4214 13.8066 22.4191C13.7922 22.4123 13.7755 22.4033 13.7611 22.3942C13.7587 22.3919 13.754 22.3897 13.7516 22.3874C13.7396 22.3806 13.7276 22.3738 13.7181 22.3647C13.7133 22.3624 13.7109 22.3602 13.7061 22.3579C13.6918 22.3488 13.6774 22.3375 13.6654 22.3284C13.6535 22.3194 13.6391 22.308 13.6272 22.2967L13.6176 22.2876L13.5889 22.2604L13.5817 22.2536C13.5697 22.2423 13.5578 22.2287 13.5482 22.2173C13.5458 22.2151 13.5434 22.2105 13.541 22.2083C13.5315 22.1992 13.5243 22.1878 13.5171 22.1765C13.5147 22.172 13.5123 22.1697 13.5099 22.1652L13.4812 22.1244V22.1221C13.4716 22.1085 13.4645 22.0949 13.4573 22.0813C13.3951 21.9679 13.3592 21.8386 13.3592 21.7026C13.3592 21.5666 13.3951 21.4373 13.4573 21.3239ZM20.1539 20.6822V25.6934C20.1539 25.7932 20.24 25.8748 20.3453 25.8748H21.4937C21.599 25.8748 21.6851 25.7932 21.6851 25.6934V20.6822C21.4435 20.7571 21.1875 20.7956 20.9195 20.7956C20.6515 20.7956 20.3955 20.7548 20.1539 20.6822ZM21.6851 16.1926V14.4466C21.6851 14.3468 21.599 14.2652 21.4937 14.2652H20.3453C20.24 14.2652 20.1539 14.3468 20.1539 14.4466V16.1926C20.3955 16.1177 20.6515 16.0792 20.9195 16.0792C21.1875 16.0792 21.4435 16.12 21.6851 16.1926ZM20.1539 20.6822C20.3955 20.7571 20.6515 20.7956 20.9195 20.7956C21.1875 20.7956 21.4435 20.7548 21.6851 20.6822C22.6852 20.3761 23.4077 19.4873 23.4077 18.4374C23.4077 17.3875 22.6852 16.4987 21.6851 16.1926C21.4435 16.1177 21.1875 16.0792 20.9195 16.0792C20.6515 16.0792 20.3955 16.12 20.1539 16.1926C19.1538 16.4987 18.4313 17.3875 18.4313 18.4374C18.4313 19.4873 19.1538 20.3761 20.1539 20.6822ZM20.1563 18.0587C20.1635 18.0451 20.173 18.0315 20.1802 18.0179V18.0156L20.2089 17.9748C20.2113 17.9703 20.2137 17.968 20.2161 17.9635C20.2233 17.9522 20.2329 17.9431 20.24 17.9317C20.2424 17.9295 20.2448 17.9249 20.2472 17.9227C20.2592 17.9091 20.2687 17.8977 20.2807 17.8864L20.2879 17.8796L20.3166 17.8524L20.3262 17.8433C20.3381 17.832 20.3501 17.8229 20.3644 17.8116C20.3788 17.8002 20.3908 17.7912 20.4051 17.7821C20.4099 17.7798 20.4123 17.7776 20.4171 17.7753C20.429 17.7685 20.4386 17.7594 20.4506 17.7526C20.453 17.7503 20.4577 17.7481 20.4601 17.7458C20.4745 17.7367 20.4888 17.7299 20.5056 17.7209C20.508 17.7186 20.5128 17.7186 20.5152 17.7163C20.5271 17.7095 20.5391 17.705 20.5534 17.6982L20.5678 17.6914C20.5845 17.6846 20.5989 17.6778 20.6157 17.6733C20.6324 17.6664 20.6491 17.6619 20.6659 17.6574C20.6707 17.6551 20.6755 17.6551 20.6802 17.6528C20.6946 17.6483 20.7066 17.646 20.7209 17.6438C20.7257 17.6438 20.7281 17.6415 20.7329 17.6415C20.7496 17.637 20.7688 17.6347 20.7855 17.6324C20.7903 17.6324 20.7927 17.6324 20.7975 17.6302C20.8118 17.6279 20.8262 17.6279 20.8405 17.6256H20.8549C20.874 17.6256 20.8908 17.6234 20.9099 17.6234C20.9291 17.6234 20.9458 17.6234 20.965 17.6256H20.9793C20.9937 17.6256 21.008 17.6279 21.0224 17.6302C21.0272 17.6302 21.0296 17.6302 21.0343 17.6324C21.0511 17.6347 21.0702 17.637 21.087 17.6415C21.0918 17.6415 21.0942 17.6438 21.0989 17.6438C21.1133 17.646 21.1276 17.6506 21.1396 17.6528C21.1444 17.6551 21.1492 17.6551 21.154 17.6574C21.1707 17.6619 21.1875 17.6664 21.2042 17.6733C21.221 17.6778 21.2353 17.6846 21.2521 17.6914L21.2664 17.6982C21.2784 17.7027 21.2927 17.7095 21.3047 17.7163C21.3071 17.7186 21.3119 17.7186 21.3143 17.7209C21.3286 17.7277 21.3454 17.7367 21.3597 17.7458C21.3621 17.7481 21.3669 17.7503 21.3693 17.7526C21.3813 17.7594 21.3932 17.7662 21.4028 17.7753C21.4076 17.7776 21.41 17.7798 21.4147 17.7821C21.4291 17.7912 21.4435 17.8025 21.4554 17.8116C21.4674 17.8206 21.4817 17.832 21.4937 17.8433L21.5033 17.8524L21.532 17.8796L21.5392 17.8864C21.5511 17.8977 21.5631 17.9113 21.5727 17.9227C21.575 17.9249 21.5774 17.9295 21.5798 17.9317C21.5894 17.9408 21.5966 17.9522 21.6038 17.9635C21.6061 17.968 21.6085 17.9703 21.6109 17.9748L21.6396 18.0156V18.0179C21.7194 18.1448 21.7616 18.2897 21.7617 18.4374C21.7617 18.5735 21.7258 18.7027 21.6636 18.8161C21.6564 18.8297 21.6468 18.8433 21.6396 18.8569V18.8592L21.6109 18.9C21.6085 18.9045 21.6061 18.9068 21.6038 18.9113C21.5966 18.9226 21.587 18.9317 21.5798 18.9431C21.5774 18.9453 21.575 18.9499 21.5727 18.9521C21.5607 18.9657 21.5511 18.9771 21.5392 18.9884L21.532 18.9952L21.5033 19.0224L21.4937 19.0315C21.4817 19.0428 21.4698 19.0519 21.4554 19.0632C21.4411 19.0746 21.4291 19.0836 21.4147 19.0927C21.41 19.095 21.4076 19.0972 21.4028 19.0995C21.3908 19.1063 21.3813 19.1154 21.3693 19.1222C21.3669 19.1245 21.3621 19.1267 21.3597 19.129C21.3454 19.1381 21.331 19.1449 21.3143 19.1539C21.3119 19.1562 21.3071 19.1562 21.3047 19.1585C21.2927 19.1653 21.2808 19.1698 21.2664 19.1766L21.2521 19.1834C21.2353 19.1902 21.221 19.197 21.2042 19.2015C21.1875 19.2084 21.1707 19.2129 21.154 19.2174C21.1492 19.2197 21.1444 19.2197 21.1396 19.222C21.1253 19.2265 21.1133 19.2288 21.0989 19.231C21.0942 19.231 21.0918 19.2333 21.087 19.2333C21.0702 19.2378 21.0511 19.2401 21.0343 19.2424C21.0296 19.2424 21.0272 19.2424 21.0224 19.2446C21.008 19.2469 20.9937 19.2469 20.9793 19.2492H20.965C20.9458 19.2492 20.9291 19.2514 20.9099 19.2514C20.8908 19.2514 20.874 19.2514 20.8549 19.2492H20.8405C20.8262 19.2492 20.8118 19.2469 20.7975 19.2446C20.7927 19.2446 20.7903 19.2446 20.7855 19.2424C20.7688 19.2401 20.7496 19.2378 20.7329 19.2333C20.7281 19.2333 20.7257 19.231 20.7209 19.231C20.7066 19.2288 20.6922 19.2242 20.6802 19.222C20.6755 19.2197 20.6707 19.2197 20.6659 19.2174C20.6491 19.2129 20.6324 19.2084 20.6157 19.2015C20.5989 19.197 20.5845 19.1902 20.5678 19.1834L20.5534 19.1766C20.5415 19.1721 20.5271 19.1653 20.5152 19.1585C20.5128 19.1562 20.508 19.1562 20.5056 19.1539C20.4912 19.1471 20.4745 19.1381 20.4601 19.129C20.4577 19.1267 20.453 19.1245 20.4506 19.1222C20.4386 19.1154 20.4266 19.1086 20.4171 19.0995C20.4123 19.0972 20.4099 19.095 20.4051 19.0927C20.3908 19.0836 20.3764 19.0723 20.3644 19.0632C20.3525 19.0542 20.3381 19.0428 20.3262 19.0315L20.3166 19.0224L20.2879 18.9952L20.2807 18.9884C20.2687 18.9771 20.2568 18.9635 20.2472 18.9521C20.2448 18.9499 20.2424 18.9453 20.24 18.9431C20.2305 18.934 20.2233 18.9226 20.2161 18.9113C20.2137 18.9068 20.2113 18.9045 20.2089 18.9L20.1802 18.8592V18.8569C20.1706 18.8433 20.1635 18.8297 20.1563 18.8161C20.0941 18.7027 20.0582 18.5735 20.0582 18.4374C20.0582 18.3014 20.0941 18.1721 20.1563 18.0587Z" fill="url(#paint0_linear)" fill-opacity="0.2"/>
<defs>
<linearGradient id="paint0_linear" x1="17.57" y1="11" x2="17.57" y2="29.14" gradientUnits="userSpaceOnUse">
<stop offset="0.109375"/>
<stop offset="1" stop-opacity="0"/>
</linearGradient>
</defs>
</svg>
