<svg width="36" height="36" viewBox="0 0 36 36" fill="none" xmlns="http://www.w3.org/2000/svg">
<path d="M27.0323 11.1484H24.7162V10.1914C24.7162 10.0861 24.6256 10 24.5148 10H11.6252C11.5144 10 11.4238 10.0861 11.4238 10.1914V11.1484H9.1077C8.81392 11.1484 8.53217 11.2593 8.32444 11.4567C8.1167 11.6541 8 11.9219 8 12.2011V15.742C8 17.6967 9.5105 19.3212 11.4792 19.6178C11.8694 22.3979 14.2182 24.5871 17.1637 24.8933V27.4102H12.2294C11.7838 27.4102 11.4238 27.7523 11.4238 28.1758V28.9486C11.4238 29.0539 11.5144 29.14 11.6252 29.14H24.5148C24.6256 29.14 24.7162 29.0539 24.7162 28.9486V28.1758C24.7162 27.7523 24.3562 27.4102 23.9106 27.4102H18.9763V24.8933C21.9218 24.5871 24.2706 22.3979 24.6608 19.6178C26.6295 19.3212 28.14 17.6967 28.14 15.742V12.2011C28.14 11.9219 28.0233 11.6541 27.8156 11.4567C27.6078 11.2593 27.3261 11.1484 27.0323 11.1484ZM9.8126 15.742V12.871H11.4238V17.8378C10.9562 17.6959 10.5481 17.4164 10.2585 17.0397C9.9689 16.663 9.81275 16.2085 9.8126 15.742ZM22.9036 18.8044C22.9036 19.9791 22.4228 21.0868 21.5467 21.917C20.6706 22.7496 19.5075 23.2066 18.2714 23.2066H17.8686C16.6325 23.2066 15.4669 22.7496 14.5933 21.917C13.7172 21.0845 13.2364 19.9791 13.2364 18.8044V11.7226H22.9036V18.8044ZM26.3274 15.742C26.3274 16.7229 25.6502 17.5555 24.7162 17.8378V12.871H26.3274V15.742Z" fill="#665A52"/>
<path d="M27.0323 11.1484H24.7162V10.1914C24.7162 10.0861 24.6256 10 24.5148 10H11.6252C11.5144 10 11.4238 10.0861 11.4238 10.1914V11.1484H9.1077C8.81392 11.1484 8.53217 11.2593 8.32444 11.4567C8.1167 11.6541 8 11.9219 8 12.2011V15.742C8 17.6967 9.5105 19.3212 11.4792 19.6178C11.8694 22.3979 14.2182 24.5871 17.1637 24.8933V27.4102H12.2294C11.7838 27.4102 11.4238 27.7523 11.4238 28.1758V28.9486C11.4238 29.0539 11.5144 29.14 11.6252 29.14H24.5148C24.6256 29.14 24.7162 29.0539 24.7162 28.9486V28.1758C24.7162 27.7523 24.3562 27.4102 23.9106 27.4102H18.9763V24.8933C21.9218 24.5871 24.2706 22.3979 24.6608 19.6178C26.6295 19.3212 28.14 17.6967 28.14 15.742V12.2011C28.14 11.9219 28.0233 11.6541 27.8156 11.4567C27.6078 11.2593 27.3261 11.1484 27.0323 11.1484ZM9.8126 15.742V12.871H11.4238V17.8378C10.9562 17.6959 10.5481 17.4164 10.2585 17.0397C9.9689 16.663 9.81275 16.2085 9.8126 15.742ZM22.9036 18.8044C22.9036 19.9791 22.4228 21.0868 21.5467 21.917C20.6706 22.7496 19.5075 23.2066 18.2714 23.2066H17.8686C16.6325 23.2066 15.4669 22.7496 14.5933 21.917C13.7172 21.0845 13.2364 19.9791 13.2364 18.8044V11.7226H22.9036V18.8044ZM26.3274 15.742C26.3274 16.7229 25.6502 17.5555 24.7162 17.8378V12.871H26.3274V15.742Z" fill="url(#paint0_linear)" fill-opacity="0.2"/>
<defs>
<linearGradient id="paint0_linear" x1="18.07" y1="10" x2="18.07" y2="29.14" gradientUnits="userSpaceOnUse">
<stop offset="0.0677083"/>
<stop offset="1" stop-opacity="0"/>
</linearGradient>
</defs>
</svg>
