<svg width="36" height="36" viewBox="0 0 36 36" fill="none" xmlns="http://www.w3.org/2000/svg">
<path d="M10.5703 28.3633H24.7852C27.2461 28.3633 28.4648 27.1445 28.4648 24.7305V10.4219C28.4648 8.00781 27.2461 6.78906 24.7852 6.78906H10.5703C8.12109 6.78906 6.89062 7.99609 6.89062 10.4219V24.7305C6.89062 27.1562 8.12109 28.3633 10.5703 28.3633ZM8.77734 24.6367V10.5156C8.77734 9.29688 9.42188 8.67578 10.5938 8.67578H24.7617C25.9219 8.67578 26.5781 9.29688 26.5781 10.5156V24.6367C26.5781 25.5508 26.2031 26.1367 25.5234 26.3594C24.5039 23.4883 21.4102 21.4844 17.6836 21.4844C13.9453 21.4844 10.8633 23.4883 9.84375 26.3711C9.15234 26.1367 8.77734 25.5508 8.77734 24.6367ZM17.6836 19.5273C19.9219 19.5508 21.6797 17.6406 21.6797 15.1328C21.6797 12.7773 19.9219 10.832 17.6836 10.832C15.4453 10.832 13.6641 12.7773 13.6758 15.1328C13.6875 17.6406 15.4453 19.5039 17.6836 19.5273Z" fill="#474950"/>
</svg>
